<svg width="106" height="61" fill="none" xmlns="http://www.w3.org/2000/svg"><path fill-rule="evenodd" clip-rule="evenodd" d="M50.1136 6.6477h-.1366c-.2099-.0128-.4199-.0179-.6299-.023h-.4553c-.3972 0-.802.0102-1.2042.0306a.6282.6282 0 0 0-.091 0A28.2753 28.2753 0 0 0 37.0805 9.338l-.4326.2085v22.1411l1.0119-.3433c.8879-.3051 1.834-.5798 2.813-.8341a34.3342 34.3342 0 0 1 8.0952-1.0756v2.9091a24.2795 24.2795 0 0 0-1.065.0305h-.0835a32.3607 32.3607 0 0 0-6.2282.9561 31.6346 31.6346 0 0 0-7.4197 2.8913V7.825a29.7267 29.7267 0 0 1 7.784-3.1659 29.7929 29.7929 0 0 1 7.3362-.946h.4275c.511.0128 1.0094.0356 1.4774.0712a21.0904 21.0904 0 0 1 3.6554.5824V7.23a22.6239 22.6239 0 0 0-3.5416-.534 88.8025 88.8025 0 0 1-.0726-.0062c-.2468-.021-.4939-.0421-.7243-.0421Zm5.0392 2.9268c.6349.0483 1.2927.0712 1.958.0712a31.4667 31.4667 0 0 0 7.7131-.9892 31.7771 31.7771 0 0 0 7.4172-2.8938v27.8906a29.8153 29.8153 0 0 1-7.7865 3.166 29.9426 29.9426 0 0 1-7.3362.9434 22.4048 22.4048 0 0 1-5.5654-.6561V9.0354c.43.0992.8727.1907 1.323.267.7387.1246 1.5179.2162 2.2768.2721Zm14.1943.2162-1.0119.3407a44.5405 44.5405 0 0 1-2.8131.8417 34.2628 34.2628 0 0 1-8.4063 1.0782c-.6602 0-1.2673-.0178-1.8542-.0559l-.807-.0534V34.7188l.6931.0611a22.8513 22.8513 0 0 0 1.9732.0839 26.8884 26.8884 0 0 0 6.6203-.857 27.7638 27.7638 0 0 0 5.1733-1.8589l.4326-.2085V9.7907Z" fill="#AFB1B8"/><path d="M35.7371 45.9255a1.4924 1.4924 0 0 0-.5147-.3478 1.4862 1.4862 0 0 0-.611-.1074 1.676 1.676 0 0 0-.6501.1221 1.503 1.503 0 0 0-.506.3331 1.4645 1.4645 0 0 0-.3263.5086 1.65 1.65 0 0 0-.1164.6281v3.794a1.789 1.789 0 0 0 .1493.7782c.0895.1944.2188.3677.3794.5085.1517.1277.3297.2198.5212.2696a2.112 2.112 0 0 0 .5666.0788 1.418 1.418 0 0 0 .6122-.1322 1.601 1.601 0 0 0 .506-.3509 1.6498 1.6498 0 0 0 .3313-.5086 1.5338 1.5338 0 0 0 .1215-.6052v-.4247h-.9917v.3382a.8796.8796 0 0 1-.0582.3382.6066.6066 0 0 1-.1442.2136.6048.6048 0 0 1-.2074.1094.6973.6973 0 0 1-.2074.0356.5041.5041 0 0 1-.4655-.2035.8978.8978 0 0 1-.1315-.5085v-3.5372a1.2073 1.2073 0 0 1 .1214-.5671.5046.5046 0 0 1 .4857-.2289.5268.5268 0 0 1 .4427.2136.806.806 0 0 1 .1644.5086v.3281h.9816v-.3866a1.7906 1.7906 0 0 0-.1215-.6637 1.5626 1.5626 0 0 0-.3314-.534ZM41.6289 45.8822a1.7652 1.7652 0 0 0-1.1282-.417 1.7366 1.7366 0 0 0-.592.1068 1.6058 1.6058 0 0 0-.5236.3102 1.5597 1.5597 0 0 0-.3846.5315 1.7718 1.7718 0 0 0-.1442.7349v3.6389c-.0068.256.0424.5104.1442.7451.0898.1957.221.3693.3846.5086.1516.1407.3296.2497.5236.3204.1897.0698.39.1059.592.1068a1.7115 1.7115 0 0 0 .5919-.1068 1.6543 1.6543 0 0 0 .5363-.3204 1.5536 1.5536 0 0 0 .3744-.5086 1.754 1.754 0 0 0 .1442-.7451v-3.6389a1.7702 1.7702 0 0 0-.1442-.7349 1.6411 1.6411 0 0 0-.3744-.5315Zm-.4629 4.9053a.6524.6524 0 0 1-.1973.5264.7261.7261 0 0 1-.9335 0 .6526.6526 0 0 1-.1973-.5264v-3.6389a.6526.6526 0 0 1 .1973-.5264.7264.7264 0 0 1 .4667-.17.7267.7267 0 0 1 .4668.17.6532.6532 0 0 1 .1973.5264v3.6389ZM49.3673 52.4125v-6.8887h-.9537l-1.2522 3.6465h-.0177l-1.2624-3.6465h-.9436v6.8887h.9841v-4.1907h.0177l.9638 2.9625h.4908l.9714-2.9625h.0177v4.1907h.9841ZM54.9581 46.0068a1.367 1.367 0 0 0-.5566-.3764 2.1838 2.1838 0 0 0-.7134-.1068H52.226v6.8888h.9815V49.722h.5059c.3063.0139.611-.0508.8854-.1882a1.4301 1.4301 0 0 0 .5389-.5264c.1135-.1832.19-.3871.2251-.6001a4.8985 4.8985 0 0 0 .0531-.7832 3.923 3.923 0 0 0-.0961-.9841 1.467 1.467 0 0 0-.3617-.6332Zm-.506 2.1004a.8663.8663 0 0 1-.0911.3586.553.553 0 0 1-.2529.2416 1.0071 1.0071 0 0 1-.463.0864h-.4477v-2.342h.5059a.941.941 0 0 1 .4427.0865.5552.5552 0 0 1 .2302.2543c.0537.121.0829.2515.086.3839v.4578c0 .1602.0101.3255 0 .4729h-.0101ZM59.6077 45.5238h-.8045l-1.5178 6.8887h.9815l.2884-1.4799h1.3382l.2884 1.4799h.9816l-1.5558-6.8887Zm-.9057 4.4704.4832-2.4971h.0177l.4807 2.4971h-.9816ZM65.9497 49.6738h-.0177l-1.4824-4.15h-.9436v6.8887h.9815v-4.1424h.0203l1.5001 4.1424h.9233v-6.8887h-.9815v4.15ZM71.9476 45.5238l-.7893 2.7387h-.0202l-.7893-2.7387h-1.0397l1.3483 3.9771v2.9116h.9816v-2.9116l1.3483-3.9771h-1.0397ZM33 54.3577h.4731v1.3274h.3212v-1.3274h.4706v-.2721H33v.2721ZM36.9767 54.0856l-.6198 1.5995h.3415l.1316-.3637h.6375l.1366.3637h.3491l-.635-1.5995h-.3415Zm-.0506.9663.2176-.5925.2175.5925h-.4351ZM40.9079 55.0953h.3694v.2059a.6122.6122 0 0 1-.3795.1348.4046.4046 0 0 1-.339-.1526.6689.6689 0 0 1-.1189-.417c0-.356.1543-.534.4604-.534a.3379.3379 0 0 1 .2277.0598.3413.3413 0 0 1 .1341.1945l.3162-.061c-.0683-.3128-.2934-.4705-.678-.4705a.8043.8043 0 0 0-.559.206.7833.7833 0 0 0-.2302.6154.872.872 0 0 0 .2049.6001.7756.7756 0 0 0 .278.1839.7716.7716 0 0 0 .3291.05.961.961 0 0 0 .678-.2542v-.6307h-.6932v.2696ZM44.9226 54.0856h-.3238v1.5995h1.1206v-.2721h-.7968v-1.3274ZM48.3175 54.0856h-.3238v1.5995h.3238v-1.5995ZM51.6365 55.1536l-.6552-1.068h-.3137v1.5995h.301v-1.0452l.6426 1.0452h.3213v-1.5995h-.296v1.068ZM54.6368 54.9807h.7969v-.2721h-.7969v-.3509h.8576v-.2721H54.313v1.5995h1.2143v-.2721h-.8905v-.4323ZM61.9122 54.7162h-.6299v-.6306h-.3212v1.5995h.3212v-.6993h.6299v.6993h.3213v-1.5995h-.3213v.6306ZM64.9302 54.9807h.7994v-.2721h-.7994v-.3509h.8601v-.2721h-1.1814v1.5995h1.2117v-.2721h-.8904v-.4323ZM69.0233 54.9807c.2782-.0432.4199-.1907.4199-.445a.3828.3828 0 0 0-.1569-.356.9048.9048 0 0 0-.468-.0941h-.6779v1.5995h.3213v-.6688h.0632a.431.431 0 0 1 .1998.0356.3358.3358 0 0 1 .1139.117l.3491.5086h.3845l-.1948-.3128a1.1151 1.1151 0 0 0-.3541-.384Zm-.3239-.2212h-.2377v-.4018h.2529a.84.84 0 0 1 .3264.0382.208.208 0 0 1 .0703.1664.2095.2095 0 0 1-.0855.1591.9126.9126 0 0 1-.3264.0381ZM72.1096 54.9807h.7968v-.2721h-.7968v-.3509h.8601v-.2721h-1.1839v1.5995H73v-.2721h-.8904v-.4323Z" fill="#AFB1B8"/></svg>