<svg width="106" height="61" fill="none" xmlns="http://www.w3.org/2000/svg"><path fill-rule="evenodd" clip-rule="evenodd" d="m38 7.7131 7.0078 6.6342L32 14.3396v32.1873h34V34.2202l7 6.6267V7.7131H38Zm27.6924 25.7284L45.8226 14.6311h19.8698v18.8104Zm-6.1693 8.3772h-22.143V20.1711h1.5652v20.1817h20.5778v1.4659Zm-16.9142 8.9936-.8179 1.6845-.8179-1.6845h-.686l1.1939 2.246v1.3086h.6201v-1.3086l1.1914-2.246h-.6836Zm1.0278 3.5546.2881-.8276h1.377l.2905.8276h.6445l-1.3452-3.5546h-.5542l-1.3428 3.5546h.6421Zm.9766-2.8002.5151 1.4746h-1.0303l.5152-1.4746Zm3.2568 1.3891a.8077.8077 0 0 0-.1343.4517c0 .2995.105.5428.315.73.2116.1855.4931.2783.8447.2783s.6543-.0952.9082-.2857l.2002.2368h.6885l-.5225-.6176c.2051-.28.3076-.6389.3076-1.0767h-.5151c0 .2393-.0496.4566-.1489.6519l-.6861-.8106.2417-.1758c.1709-.1237.2938-.2474.3687-.3711a.7847.7847 0 0 0 .1123-.4101c0-.2246-.083-.4126-.249-.564-.1644-.153-.376-.2295-.6348-.2295-.2865 0-.5143.0814-.6836.2442-.1693.1611-.2539.3808-.2539.6591 0 .114.0269.232.0806.3541.0553.122.1522.2701.2905.4443-.2637.1888-.4403.3524-.5298.4907Zm1.604.7861c-.1741.1335-.3613.2002-.5615.2002-.1774 0-.319-.0512-.4248-.1538-.1058-.1025-.1587-.236-.1587-.4004 0-.1904.0977-.3597.293-.5078l.0757-.0537.7763.9155Zm-.6372-1.5747c-.1676-.2067-.2515-.3784-.2515-.5151 0-.1188.0342-.2173.1026-.2954.0683-.0781.1603-.1172.2759-.1172.1074 0 .1961.0334.2661.1001.07.0651.105.144.105.2368 0 .14-.0505.2547-.1514.3443l-.0757.061-.271.1855Zm5.7861 1.9312c.2442-.2132.3842-.5095.42-.8887h-.6153c-.0325.2539-.1098.4354-.2319.5445-.1221.109-.3044.1635-.5469.1635-.2653 0-.4671-.1009-.6054-.3027-.1368-.2018-.2051-.4948-.2051-.8789v-.315c.0032-.3792.0765-.6665.2197-.8618.1449-.1969.3516-.2954.6201-.2954.2311 0 .4061.057.5249.1709.1205.1123.1953.2962.2246.5518h.6153c-.0391-.389-.1783-.6901-.4175-.9033-.2393-.2133-.555-.3199-.9473-.3199-.2913 0-.5485.0692-.7715.2075-.2213.1384-.3914.3353-.5102.5909-.1188.2555-.1782.5509-.1782.8862v.332c.0048.3272.0659.6145.1831.8618.1172.2474.2832.4387.498.5738.2165.1334.4663.2002.7495.2002.4053 0 .73-.1058.9741-.3174Zm3.6304-.4981c.1205-.2636.1807-.5696.1807-.9179v-.1978c-.0016-.3467-.0635-.6502-.1856-.9106-.122-.2621-.2954-.4623-.52-.6006-.223-.14-.4793-.21-.769-.21s-.5469.0708-.7715.2124c-.223.14-.3963.3426-.52.6079-.1221.2653-.1831.5713-.1831.918v.2002c.0016.3402.0634.6405.1855.9009.1237.2604.2979.4614.5225.603.2262.14.4834.21.7715.21.2913 0 .5485-.07.7714-.21.2246-.1416.3972-.3434.5176-.6055Zm-.6616-2.0092c.1497.2099.2246.5118.2246.9057v.1856c0 .4004-.0741.7047-.2222.9131-.1464.2083-.3564.3125-.6298.3125-.2702 0-.4818-.1067-.6348-.3199-.1514-.2132-.2271-.5151-.2271-.9057v-.2051c.0033-.3825.0798-.6779.2295-.8862.1514-.21.3605-.315.6275-.315.2734 0 .4842.105.6323.315Z" fill="#AFB1B8"/></svg>