<svg width="106" height="60" fill="none" xmlns="http://www.w3.org/2000/svg"><path d="M36.4063 49.1014a.1357.1357 0 0 1 .0461.0092.1222.1222 0 0 1 .0384.024l.2181.2085c-.1693.1687-.3785.3037-.6134.3957a2.3909 2.3909 0 0 1-.8698.1421 2.3144 2.3144 0 0 1-.8179-.1327c-.2339-.085-.444-.2126-.6162-.3743-.1757-.1677-.3111-.3643-.3981-.5781a1.9263 1.9263 0 0 1-.139-.7416 1.7992 1.7992 0 0 1 .1499-.7439c.0953-.2152.2389-.4117.4226-.5781.1862-.1631.4089-.2914.6544-.3767a2.5648 2.5648 0 0 1 .8425-.1327 2.2698 2.2698 0 0 1 .7825.1208c.2159.0814.4142.1944.5862.3341l-.1827.2227a.1773.1773 0 0 1-.0464.0403.1251.1251 0 0 1-.0736.0166.1769.1769 0 0 1-.079-.0237l-.0982-.0593-.1363-.0758a1.5546 1.5546 0 0 0-.1827-.0734 1.8897 1.8897 0 0 0-.2481-.0592 1.8924 1.8924 0 0 0-.3245-.0237 1.759 1.759 0 0 0-.6052.0995c-.1792.0629-.3409.1582-.4744.2795-.136.1291-.2408.2806-.3081.4455a1.4974 1.4974 0 0 0-.1118.5875 1.5279 1.5279 0 0 0 .1118.5971c.0665.1634.1693.314.3026.443.1249.1203.2797.2143.4526.2749.178.0641.369.0963.5617.0947a2.3686 2.3686 0 0 0 .3326-.0189 1.3165 1.3165 0 0 0 .5044-.1588 1.6474 1.6474 0 0 0 .2154-.1469.1712.1712 0 0 1 .1036-.0379ZM42.7044 48.0538a1.8076 1.8076 0 0 1-.1473.7368c-.0888.2137-.2288.4087-.4106.572-.1819.1634-.4015.2914-.6445.3756a2.6553 2.6553 0 0 1-1.6577 0c-.2413-.0855-.4595-.2138-.6407-.3767-.1817-.1663-.3227-.3629-.4144-.578-.1964-.4772-.1964-.9988 0-1.4759.093-.2153.2338-.4125.4144-.5805.1827-.1577.4008-.2811.6407-.3624a2.6105 2.6105 0 0 1 1.6577 0c.2422.0855.4613.2137.6435.3767.1795.1646.3194.3587.4116.5709.1011.2372.151.4886.1473.7415Zm-.5726 0a1.564 1.564 0 0 0-.1036-.5923c-.0611-.1635-.1604-.3143-.2917-.443-.1278-.1217-.2852-.2172-.4608-.2795a1.9176 1.9176 0 0 0-1.2051 0c-.1755.0623-.3329.1578-.4607.2795-.1332.1279-.2335.2789-.2945.443a1.7382 1.7382 0 0 0 0 1.1846c.0616.1639.1619.3148.2945.443.128.121.2854.2157.4607.2772a1.9653 1.9653 0 0 0 1.2051 0c.1754-.0615.3328-.1562.4608-.2772.1307-.129.23-.2797.2917-.443a1.552 1.552 0 0 0 .1036-.5923ZM47.0013 48.6747l.0573.1327c.0218-.0474.0409-.0901.0627-.1327a1.2118 1.2118 0 0 1 .0709-.1303l1.3932-2.2006c.0273-.0379.0518-.0615.0791-.0687a.373.373 0 0 1 .1145-.0118h.4117v3.5792h-.4881v-2.743a.974.974 0 0 1 0-.1232l-1.4014 2.2314a.2027.2027 0 0 1-.082.0814.2458.2458 0 0 1-.1197.0299h-.0791a.2428.2428 0 0 1-.12-.0295.2013.2013 0 0 1-.0818-.0818l-1.4423-2.2456v2.8733h-.4716v-3.5721h.4117a.3736.3736 0 0 1 .1145.0118.154.154 0 0 1 .0763.0687l1.4232 2.203a.7529.7529 0 0 1 .0709.1279ZM52.2443 48.4969v1.3407h-.5453v-3.5744h1.216a2.603 2.603 0 0 1 .6789.0781c.1765.0435.3402.1194.4799.2227.1211.0968.2145.2168.2726.3506.0644.1458.0959.301.0927.4571a1.0256 1.0256 0 0 1-.1008.4572c-.0656.1371-.1663.2595-.2945.3577a1.3913 1.3913 0 0 1-.4826.2368 2.2995 2.2995 0 0 1-.6571.0829l-.6598-.0094Zm0-.3838h.6598c.1434.0017.286-.0167.4226-.0544a.9243.9243 0 0 0 .3054-.154.6345.6345 0 0 0 .1854-.2369.6856.6856 0 0 0 .0654-.3008.6036.6036 0 0 0-.0547-.2912.688.688 0 0 0-.1906-.2441c-.2083-.1413-.47-.2098-.7335-.1919h-.6598v1.4733ZM59.5731 49.8424h-.4308a.2051.2051 0 0 1-.12-.0332.2238.2238 0 0 1-.0709-.0829l-.3708-.8647h-1.8621l-.3845.8647a.1964.1964 0 0 1-.0681.0806.2049.2049 0 0 1-.1227.0355h-.4308l1.6359-3.5796h.5671l1.6577 3.5796Zm-2.6992-1.329h1.5377l-.6489-1.457a2.3666 2.3666 0 0 1-.1227-.3364l-.0627.1872a1.6904 1.6904 0 0 1-.06.1516l-.6434 1.4546ZM61.9288 46.2795a.2318.2318 0 0 1 .0818.0639l2.3856 2.6983V46.2629h.4881v3.5795h-.2727a.2653.2653 0 0 1-.1118-.0213.2985.2985 0 0 1-.0872-.0663l-2.3829-2.6959a.974.974 0 0 1 0 .1232V49.8424h-.4881v-3.5795h.289a.2586.2586 0 0 1 .0982.0166ZM68.9031 48.4188v1.4214h-.5453v-1.4214L66.85 46.2631h.4881a.1963.1963 0 0 1 .1172.0307.312.312 0 0 1 .0736.0806l.9434 1.3906c.0382.0592.0709.1137.0982.1658.0272.0521.049.1019.0681.1516l.0709-.154a1.2363 1.2363 0 0 1 .0927-.1634l.9297-1.4001a.3787.3787 0 0 1 .0709-.0758.1827.1827 0 0 1 .1173-.0355h.4935l-1.5105 2.1652ZM46.7314 40.2561c.2372.0261.4771.0474.7198.0664 3.6788-1.4299 6.791-3.7702 8.9474-6.7283 2.1565-2.9582 3.2616-6.403 3.1772-9.9038l-4.0542-3.5226c.8243 3.7273.4387 7.5804-1.1137 11.1281-1.5524 3.5478-4.2104 6.6502-7.6765 8.9602Z" fill="#AFB1B8"/><path d="m45.2837 40.0923.1091.0189c3.7038-2.3018 6.5277-5.5161 8.1065-9.2273 1.5787-3.7112 1.8396-7.7486.749-11.59l-5.7746-5.0172c2.3357 4.1241 3.2758 8.7395 2.7111 13.3095-.5647 4.57-2.6111 8.9068-5.9011 12.5061ZM64.8679 27.8265c-.9811 3.8466-3.3638 7.3158-6.7944 9.8924-1.0019.7566-2.0826 1.4307-3.2281 2.0135 2.7935-.7134 5.3611-1.9746 7.5048-3.6864 2.1438-1.7119 3.8064-3.8286 4.8598-6.187l-2.3421-2.0325Z" fill="#AFB1B8"/><path d="m63.9491 27.2601-3.3345-2.8972c-.0637 3.3031-1.1445 6.5311-3.13 9.3485-1.9855 2.8173-4.8032 5.1213-8.1603 6.6723h.0163a21.7448 21.7448 0 0 0 2.2385-.1161c3.1374-1.1126 5.9089-2.8827 8.0674-5.1524 2.1584-2.2697 3.6366-4.9683 4.3026-7.8551ZM45.7663 12.1609l-3.978-3.461c-3.5561 1.194-6.6145 3.2929-8.7749 6.0221-2.1605 2.7292-3.3222 5.9615-3.3333 9.2739.0133 3.6601 1.4312 7.2118 4.0292 10.0929 2.598 2.8811 6.2278 4.9272 10.3148 5.8142 3.6484-3.862 5.7845-8.6343 6.0978-13.6232.3133-4.989-1.2125-9.9349-4.3556-14.1189ZM73.14 26.7273c-.0143-4.3425-2.0062-8.5035-5.5403-11.5741-3.5342-3.0706-8.3234-4.8012-13.3214-4.8137-2.3095-.0021-4.5994.3682-6.7535 1.092l24.3556 21.1611c.834-1.8705 1.2611-3.8593 1.2596-5.8653Z" fill="#AFB1B8"/></svg>